<svg xmlns="http://www.w3.org/2000/svg" viewBox="30.2 -118.8 4982.4 929.4"><g id="c"><g transform="scale(4.24)" fill="none" stroke="#111" stroke-width="30" stroke-linejoin="miter"><path stroke-linecap="round" d="M 72 42 C 88 24 106 30 110 54 L 110 104 C 110 148 100 172 66 172 C 40 172 24 155 24 134 C 24 112 42 97 63 97 C 84 97 98 112 98 132"/><path stroke-linecap="butt" d="M 110 98 L 192 22 L 272 98 L 272 170"/></g><g fill="#111"><path transform="translate(1272,730) scale(1,-1)" d="M34 277Q34 362 71.5 427.0Q109 492 174.0 527.5Q239 563 319 563Q399 563 464.0 527.5Q529 492 566.5 427.0Q604 362 604 277Q604 192 565.5 127.0Q527 62 461.5 26.5Q396 -9 315 -9Q235 -9 171.0 26.5Q107 62 70.5 127.0Q34 192 34 277ZM460 277Q460 356 418.5 398.5Q377 441 317 441Q257 441 216.5 398.5Q176 356 176 277Q176 198 215.5 155.5Q255 113 315 113Q353 113 386.5 131.5Q420 150 440.0 187.0Q460 224 460 277Z"/>
    <path transform="translate(1910,730) scale(1,-1)" d="M39 175H180Q184 143 211.5 122.0Q239 101 280 101Q320 101 342.5 117.0Q365 133 365 158Q365 185 337.5 198.5Q310 212 250 228Q188 243 148.5 259.0Q109 275 80.5 308.0Q52 341 52 397Q52 443 78.5 481.0Q105 519 154.5 541.0Q204 563 271 563Q370 563 429.0 513.5Q488 464 494 380H360Q357 413 332.5 432.5Q308 452 267 452Q229 452 208.5 438.0Q188 424 188 399Q188 371 216.0 356.5Q244 342 303 327Q363 312 402.0 296.0Q441 280 469.5 246.5Q498 213 499 158Q499 110 472.5 72.0Q446 34 396.5 12.5Q347 -9 281 -9Q213 -9 159.0 15.5Q105 40 73.5 82.0Q42 124 39 175Z"/>
    <path transform="translate(2455,730) scale(1,-1)" d="M232 439V171Q232 143 245.5 130.5Q259 118 291 118H356V0H268Q91 0 91 172V439H25V554H91V691H232V554H356V439Z"/>
    <path transform="translate(2843,730) scale(1,-1)" d="M323 439H226V0H84V439H21V554H84V582Q84 684 142.0 732.0Q200 780 317 777V659Q266 660 246.0 642.0Q226 624 226 577V554H323Z"/>
    <path transform="translate(3188,730) scale(1,-1)" d="M209 740V0H69V740Z"/>
    <path transform="translate(3466,730) scale(1,-1)" d="M34 277Q34 362 71.5 427.0Q109 492 174.0 527.5Q239 563 319 563Q399 563 464.0 527.5Q529 492 566.5 427.0Q604 362 604 277Q604 192 565.5 127.0Q527 62 461.5 26.5Q396 -9 315 -9Q235 -9 171.0 26.5Q107 62 70.5 127.0Q34 192 34 277ZM460 277Q460 356 418.5 398.5Q377 441 317 441Q257 441 216.5 398.5Q176 356 176 277Q176 198 215.5 155.5Q255 113 315 113Q353 113 386.5 131.5Q420 150 440.0 187.0Q460 224 460 277Z"/>
    <path transform="translate(4104,730) scale(1,-1)" d="M837 554 675 0H524L423 387L322 0H170L7 554H149L247 132L353 554H501L605 133L703 554Z"/></g></g></svg>