<?xml version="1.0" encoding="UTF-8"?>
<svg id="Livello_2" data-name="Livello 2" xmlns="http://www.w3.org/2000/svg" viewBox="0 0 795.4991 145.2278">
  <g id="Livello_1-2" data-name="Livello 1">
    <g>
      <path d="M205.7128,36.2247c-29.151,0-51.1332,23.2316-51.1332,54.0382s21.9822,54.0383,51.1332,54.0383,51.1326-23.2316,51.1326-54.0383-21.9817-54.0382-51.1326-54.0382ZM205.7128,125.5275c-17.501,0-29.2592-14.172-29.2592-35.2646,0-20.9756,11.7582-35.0697,29.2592-35.0697,17.6155,0,29.4519,14.0941,29.4519,35.0697,0,20.763-12.1107,35.2646-29.4519,35.2646Z"/>
      <path d="M321.8656,82.923l-17.4353-3.2925c-12.3941-2.3248-17.0017-6.0576-17.0017-13.775,0-8.2507,7.6482-13.3751,19.9601-13.3751,13.455,0,22.1494,7.0538,23.2568,18.8696l.0657.695h20.3206l-.068-.8299c-1.7818-21.5823-18.5529-34.9904-43.7684-34.9904-24.0951,0-40.2841,12.6082-40.2841,31.3729,0,15.5381,10.4626,25.781,30.2641,29.6187l16.6515,3.0977c12.8447,2.5301,17.3967,6.1865,17.3967,13.9698,0,8.745-8.0523,13.7616-22.0905,13.7616-15.2709,0-25.2212-7.6665-25.9676-20.0065l-.0436-.7205h-20.3506l.0737.8344c2.0153,22.9724,18.745,36.1483,45.8993,36.1483,27.4082,0,43.7718-12.4524,43.7718-33.3112,0-15.1547-10.0279-24.3356-30.6506-28.0669Z"/>
      <path d="M471.0141,31.5676c0-8.9997,4.5645-13.3751,13.9543-13.3751,4.0397,0,7.1432.5332,9.7667,1.6792l1.074.4688V2.7652l-.4823-.1918c-4.3305-1.7316-9.1127-2.5734-14.6203-2.5734-19.857,0-30.7928,11.1417-30.7928,31.3744v6.7872h-53.653V7.7489h-21.0987v30.4127h-22.6652v18.194h22.6652v54.2479c0,21.4161,12.0002,33.6977,32.9232,33.6977,6.6218,0,11.9305-1.1205,17.7498-3.7479l.4517-.2037v-18.9505l-1.0961.5228c-3.779,1.799-7.7372,2.6363-12.4564,2.6363-11.2391,0-16.4735-5.8509-16.4735-18.4112v-49.7915h53.653v86.0088h21.1004V56.3555h28.6698v-18.194h-28.6698v-6.5939Z"/>
      <rect x="512.8725" y="1.7436" width="21.2925" height="140.6207"/>
      <path d="M597.8788,36.2247c-29.1498,0-51.1315,23.2316-51.1315,54.0382s21.9817,54.0383,51.1315,54.0383,51.1343-23.2316,51.1343-54.0383-21.9828-54.0382-51.1343-54.0382ZM597.8788,125.5275c-17.4993,0-29.2575-14.172-29.2575-35.2646,0-20.9756,11.7582-35.0697,29.2575-35.0697,17.6166,0,29.4536,14.0941,29.4536,35.0697,0,20.763-12.1119,35.2646-29.4536,35.2646Z"/>
      <polygon points="774.5223 38.1615 754.3417 111.1487 732.0891 38.1615 711.5838 38.1615 688.9459 110.9839 668.7596 38.1615 647.9783 38.1615 678.0599 142.3643 698.963 142.3643 721.8317 67.8972 744.5133 142.3643 765.2198 142.3643 795.4991 38.1615 774.5223 38.1615"/>
      <path d="M134.5118,67.5512l-29.2961-27.636c-8.8792-8.3802-22.8998-8.4963-31.9303-.267l-13.4318,12.2581V1.7436h-20.3914v66.3505l-29.8282,24.6543-.2465.2106c-5.965,5.2604-9.3875,14.3909-9.3875,22.3427,0,16.501,13.425,29.9261,29.928,29.9261s29.9257-13.4251,29.9257-29.9261v-35.7919l27.1742-24.7958c1.1839-1.0794,3.0298-1.0679,4.1905.0348l29.2955,27.636c1.8459,1.7527,2.9017,4.2017,2.9017,6.7436v53.1957h20.3931v-53.1957c0-8.1248-3.3891-15.9943-9.2968-21.5772ZM39.4623,115.3017c0,5.2573-4.2772,9.5342-9.5343,9.5342s-9.536-4.2769-9.536-9.5342c0-2.0581.8688-4.0211,2.3866-5.4074l16.6838-15.3437v20.7511Z"/>
    </g>
  </g>
</svg>